<svg width="180" height="33" viewBox="0 0 180 33" fill="none" xmlns="http://www.w3.org/2000/svg">
    <rect x="0.5" y="4.15198" width="178.097" height="25.6961" rx="2.5" fill="white" stroke="#B1B1B1"/>
    <rect x="3.90881" y="6.12708" width="21.8541" height="21.7459" fill="#6D6D6D"/>
    <rect x="52.9473" y="6.12708" width="21.8541" height="21.7459" fill="#6D6D6D"/>
    <ellipse cx="39.3551" cy="17" rx="10.927" ry="10.8729" fill="#6D6D6D"/>
    <ellipse cx="88.3935" cy="17" rx="10.927" ry="10.8729" fill="#6D6D6D"/>
    <path d="M162.441 27.8729V19.681L155.821 6.12708H158.278L162.77 15.302C163.01 15.7787 163.2 16.1957 163.34 16.5532C163.499 16.9106 163.609 17.1787 163.669 17.3575C163.729 17.1787 163.839 16.9106 163.999 16.5532C164.158 16.1957 164.348 15.7787 164.568 15.302L169.001 6.12708H171.457L164.837 19.681V27.8729H162.441Z" fill="#B1B1B1"/>
    <path d="M138.054 27.8729V6.12708H141.251L143.731 13.5147C143.931 14.0906 144.12 14.6765 144.299 15.2723C144.478 15.868 144.608 16.3347 144.688 16.6723C144.787 16.3347 144.917 15.868 145.076 15.2723C145.255 14.6765 145.445 14.0807 145.644 13.4849L148.004 6.12708H151.202V27.8729H148.871V18.5788C148.871 17.7447 148.891 16.8213 148.931 15.8084C148.991 14.7758 149.06 13.7431 149.14 12.7104C149.22 11.6777 149.299 10.6947 149.379 9.76131C149.459 8.80807 149.528 7.99384 149.588 7.31863L145.913 18.3107H143.403L139.697 7.31863C139.777 7.99384 139.857 8.78821 139.936 9.70174C140.016 10.5954 140.086 11.5586 140.146 12.5913C140.205 13.6041 140.255 14.6268 140.295 15.6595C140.355 16.6922 140.385 17.6653 140.385 18.5788V27.8729H138.054Z" fill="#B1B1B1"/>
    <path d="M119.931 27.8729V6.12708H132.368V8.27187H122.316V15.451H131.312V17.566H122.316V25.7281H132.368V27.8729H119.931Z" fill="#B1B1B1"/>
    <path d="M101.986 27.8729V6.12708H107.398C108.793 6.12708 109.999 6.39517 111.016 6.93137C112.053 7.46757 112.85 8.23215 113.408 9.22511C113.966 10.1982 114.245 11.3401 114.245 12.6508V21.3194C114.245 22.65 113.966 23.8117 113.408 24.8047C112.85 25.7778 112.053 26.5324 111.016 27.0686C109.999 27.6048 108.793 27.8729 107.398 27.8729H101.986ZM104.348 25.7579H107.398C108.793 25.7579 109.89 25.3607 110.687 24.5664C111.484 23.772 111.883 22.6897 111.883 21.3194V12.6508C111.883 11.3004 111.474 10.228 110.657 9.43364C109.86 8.63927 108.773 8.24208 107.398 8.24208H104.348V25.7579Z" fill="#B1B1B1"/>
    <line x1="175.155" y1="1" x2="175.155" y2="33" stroke="#6D6D6D"/>
    <line x1="172.878" y1="1.0304" x2="176.965" y2="1.0304" stroke="#6D6D6D"/>
    <line x1="172.878" y1="32.5" x2="176.965" y2="32.5" stroke="#6D6D6D"/>
</svg>